<?xml version="1.0" encoding="utf-8"?>
<!-- Generator: Adobe Illustrator 21.1.0, SVG Export Plug-In . SVG Version: 6.00 Build 0)  -->
<svg version="1.0" id="Layer_1" xmlns="http://www.w3.org/2000/svg" xmlns:xlink="http://www.w3.org/1999/xlink" x="0px" y="0px"
	 width="2800px" height="2800px" viewBox="0 0 2800 2800" enable-background="new 0 0 2800 2800" xml:space="preserve">
<g>
	<g>
		<g>
			<path d="M1457.4,2628c1.5,0,2.9,1.3,2.9,1.3l-24.8,53c-2.7,0-9.2,0.4-10.8,0.4c-1.5,0-2.9-1.3-2.9-1.3l-8.5-53
				c5.1,0,11.6-0.4,13.5-0.4c1.5,0,2.9,1.3,2.9,1.3l2.6,25.9c0.2,2.2,0.2,5.3,0.1,8.6c0.8-3.6,1.8-6.9,2.6-9.2l10.3-26.2
				C1450,2628.4,1455.6,2628,1457.4,2628L1457.4,2628z"/>
		</g>
		<g>
			<path d="M1483,2654.1c0,5.8-3.2,9.6-11.2,11.2l-8.4,1.7c0.6,3.6,2.9,5.4,6.7,5.4c4.6,0,7.7-3.5,7.7-3.5s2.4,1.3,2.4,4
				c0,4.8-7.4,10-15.9,10c-8.7,0-14.4-5.5-14.4-14.8c0-10.7,7.6-25.3,21.1-25.3C1478.3,2643,1483,2647.4,1483,2654.1L1483,2654.1z
				 M1468.7,2659.7c1.8-0.6,2.3-2,2.3-3.7c0-1.6-0.5-4-2.4-4c-3.3,0-4.8,5.4-5.3,9.4L1468.7,2659.7z"/>
		</g>
		<g>
			<path d="M1505.6,2643c6.8,0,11.9,3.6,11.9,8.3c0,5.9-7.1,8-7.1,8s-2.1-6.4-6.9-6.4c-3.2,0-5.1,3.3-5.1,10.3
				c0,6.4,1.7,9.3,5.9,9.3c4.3,0,6.9-2.9,6.9-2.9s2.4,1.3,2.4,4c0,4.6-7.1,9.5-15.3,9.5c-8.8,0-14.2-5.5-14.2-14.6
				C1484.1,2657.6,1491.9,2643,1505.6,2643L1505.6,2643z"/>
		</g>
		<g>
			<path d="M1538.4,2634.5c1.6,0,2.7,1.3,2.7,1.3l-1.3,8.1h8.6l-1.9,6.2c-0.6,2-1.6,3.1-3.6,3.1h-4.5l-2.5,15.7
				c-0.4,2.5,0.1,3.7,1.9,3.7c1.6,0,3.1-1,3.1-1s2.4,1.3,2.4,3.8c0,3.9-5.5,7.7-12.5,7.7c-7.4,0-10.4-4.5-9.1-12.4l2.8-17.6h-4.6
				l2-6.4c0.5-1.6,1.9-2.8,3.5-2.8h2.3l2.7-7.4C1533.8,2635.5,1536.9,2634.5,1538.4,2634.5L1538.4,2634.5z"/>
		</g>
		<g>
			<path d="M1580,2654.1c0,5.8-3.2,9.6-11.2,11.2l-8.4,1.7c0.7,3.6,2.9,5.4,6.7,5.4c4.6,0,7.7-3.5,7.7-3.5s2.4,1.3,2.4,4
				c0,4.8-7.4,10-15.9,10c-8.7,0-14.4-5.5-14.4-14.8c0-10.7,7.6-25.3,21.1-25.3C1575.3,2643,1580,2647.4,1580,2654.1L1580,2654.1z
				 M1565.7,2659.7c1.8-0.6,2.3-2,2.3-3.7c0-1.6-0.5-4-2.4-4c-3.3,0-4.8,5.4-5.3,9.4L1565.7,2659.7z"/>
		</g>
		<g>
			<path d="M1614.3,2654.1c0,5.8-3.2,9.6-11.2,11.2l-8.4,1.7c0.6,3.6,2.9,5.4,6.7,5.4c4.6,0,7.7-3.5,7.7-3.5s2.4,1.3,2.4,4
				c0,4.8-7.4,10-15.9,10c-8.7,0-14.4-5.5-14.4-14.8c0-10.7,7.6-25.3,21.1-25.3C1609.7,2643,1614.3,2647.4,1614.3,2654.1
				L1614.3,2654.1z M1600.1,2659.7c1.8-0.6,2.3-2,2.3-3.7c0-1.6-0.5-4-2.4-4c-3.3,0-4.8,5.4-5.3,9.4L1600.1,2659.7z"/>
		</g>
		<g>
			<path d="M1642.4,2668.5c0,0,2.9,2.7,2.9,7.1c0,5.9-5,7.4-9.2,7.4c-5.5,0-9.4-2.6-13.6-4c-1.2,1.3-2.3,2.7-3.4,4
				c0,0-6.1-0.2-6.1-4.3c0-5.1,8.5-13.9,17.7-23.8c-1.1-0.2-2.1-0.3-3-0.3c-5.2,0-7.2,2.6-7.2,2.6s-2.7-3.1-2.5-7.1
				c0.3-5.6,5.6-7.1,9.8-7.1c4.4,0,7.6,1.7,10.8,3.1l2.6-3.1c0,0,6.2,0.2,6.2,4.4c0,4.9-8.2,13.5-17.1,23.1c1.9,0.5,3.6,1,5.4,1
				C1640.2,2671.5,1642.4,2668.5,1642.4,2668.5L1642.4,2668.5z"/>
		</g>
		<g>
			<path d="M1682.3,2679.7c-2.2,13.5-11.5,20.3-23.2,20.3c-7.5,0-13-3.9-13-8.5c0-3,2.5-4.4,2.5-4.4s2.5,2.3,7.5,2.3
				c4.7,0,11.1-2,12.2-9.1l0.9-5.5c-3.2,4.5-7.3,8.2-12.6,8.2c-5.9,0-8.6-4.9-7-14.7l1.7-10.7c1-6.5,1.3-11.9,1.3-11.9
				c4.2-0.8,9.8-2.7,11.7-2.7c1.5,0,2.9,1.3,2.9,1.3l-2.1,13.4l-2,12.3c-0.2,1.1,0,1.8,1.1,1.8c4.9,0,7.7-14.1,7.7-14.1
				c1-6.5,1.3-11.9,1.3-11.9c4.2-0.8,9.8-2.7,11.7-2.7c1.5,0,2.9,1.3,2.9,1.3l-2.1,13.4L1682.3,2679.7z"/>
		</g>
	</g>
	<g>
		<path d="M1112.1,2645.2h13.2c3,0,5.3,0.2,6.8,0.7c2.1,0.6,3.9,1.7,5.4,3.3c1.5,1.6,2.6,3.5,3.4,5.8c0.8,2.3,1.2,5.1,1.2,8.5
			c0,3-0.4,5.5-1.1,7.6c-0.9,2.6-2.2,4.7-3.8,6.3c-1.3,1.2-3,2.2-5.1,2.9c-1.6,0.5-3.7,0.8-6.4,0.8h-13.6V2645.2z M1119.3,2651.2
			v23.8h5.4c2,0,3.5-0.1,4.4-0.3c1.2-0.3,2.2-0.8,2.9-1.5c0.8-0.7,1.4-1.9,1.9-3.5c0.5-1.6,0.7-3.8,0.7-6.6s-0.2-4.9-0.7-6.4
			c-0.5-1.5-1.2-2.6-2.1-3.5c-0.9-0.8-2-1.4-3.4-1.7c-1-0.2-3-0.3-5.9-0.3H1119.3z"/>
		<path d="M1162.3,2672.8l6.9,1.2c-0.9,2.5-2.3,4.4-4.2,5.7s-4.3,2-7.1,2c-4.5,0-7.9-1.5-10-4.4c-1.7-2.4-2.6-5.4-2.6-9
			c0-4.3,1.1-7.7,3.4-10.1c2.3-2.4,5.1-3.7,8.5-3.7c3.9,0,6.9,1.3,9.2,3.8c2.2,2.6,3.3,6.5,3.2,11.7h-17.2c0,2,0.6,3.6,1.7,4.8
			c1.1,1.1,2.4,1.7,4,1.7c1.1,0,2-0.3,2.7-0.9C1161.4,2675,1161.9,2674.1,1162.3,2672.8z M1162.7,2665.8c0-2-0.6-3.5-1.5-4.5
			c-1-1-2.2-1.6-3.6-1.6c-1.5,0-2.7,0.5-3.7,1.6c-1,1.1-1.5,2.6-1.4,4.5H1162.7z"/>
		<path d="M1171.7,2673.6l6.9-1.1c0.3,1.3,0.9,2.4,1.8,3c0.9,0.7,2.2,1,3.8,1c1.8,0,3.1-0.3,4-1c0.6-0.5,0.9-1.1,0.9-1.8
			c0-0.5-0.2-1-0.5-1.3c-0.3-0.3-1.1-0.6-2.3-0.9c-5.5-1.2-9.1-2.3-10.6-3.4c-2.1-1.4-3.1-3.4-3.1-5.9c0-2.3,0.9-4.1,2.7-5.7
			c1.8-1.5,4.5-2.3,8.3-2.3c3.6,0,6.2,0.6,7.9,1.7c1.7,1.2,2.9,2.9,3.6,5.1l-6.5,1.2c-0.3-1-0.8-1.8-1.6-2.3
			c-0.8-0.5-1.9-0.8-3.3-0.8c-1.8,0-3.1,0.3-3.9,0.8c-0.5,0.4-0.8,0.8-0.8,1.4c0,0.5,0.2,0.9,0.7,1.2c0.6,0.5,2.8,1.1,6.4,1.9
			c3.7,0.8,6.2,1.9,7.7,3.1c1.4,1.2,2.2,2.9,2.2,5.1c0,2.4-1,4.4-3,6.1c-2,1.7-4.9,2.6-8.8,2.6c-3.5,0-6.3-0.7-8.4-2.2
			C1173.7,2678.1,1172.3,2676.1,1171.7,2673.6z"/>
		<path d="M1201,2651.5v-6.4h6.9v6.4H1201z M1201,2681.1v-26h6.9v26H1201z"/>
		<path d="M1213.3,2682.8l7.9,1c0.1,0.9,0.4,1.5,0.9,1.9c0.7,0.5,1.7,0.7,3.1,0.7c1.8,0,3.1-0.3,4-0.8c0.6-0.4,1.1-0.9,1.4-1.7
			c0.2-0.6,0.3-1.6,0.3-3.2v-3.8c-2.1,2.8-4.7,4.2-7.8,4.2c-3.5,0-6.3-1.5-8.3-4.4c-1.6-2.3-2.4-5.2-2.4-8.7c0-4.4,1-7.7,3.1-10
			c2.1-2.3,4.7-3.5,7.8-3.5c3.2,0,5.9,1.4,8,4.2v-3.6h6.4v23.3c0,3.1-0.3,5.4-0.8,6.9s-1.2,2.7-2.1,3.6c-0.9,0.9-2.1,1.5-3.7,2
			c-1.5,0.5-3.5,0.7-5.8,0.7c-4.4,0-7.5-0.8-9.4-2.3c-1.8-1.5-2.8-3.4-2.8-5.7C1213.3,2683.4,1213.3,2683.1,1213.3,2682.8z
			 M1219.4,2667.5c0,2.8,0.5,4.8,1.6,6.1c1.1,1.3,2.4,1.9,4,1.9c1.7,0,3.1-0.7,4.3-2c1.2-1.3,1.7-3.3,1.7-5.8c0-2.7-0.6-4.7-1.7-6
			c-1.1-1.3-2.5-2-4.2-2c-1.6,0-3,0.6-4.1,1.9C1220,2662.9,1219.4,2664.9,1219.4,2667.5z"/>
		<path d="M1267.2,2681.1h-6.9v-13.3c0-2.8-0.1-4.6-0.4-5.4c-0.3-0.8-0.8-1.5-1.4-1.9c-0.7-0.5-1.5-0.7-2.4-0.7
			c-1.2,0-2.3,0.3-3.2,1c-0.9,0.7-1.6,1.5-1.9,2.6s-0.5,3.1-0.5,6v11.8h-6.9v-26h6.4v3.8c2.3-2.9,5.1-4.4,8.6-4.4
			c1.5,0,2.9,0.3,4.2,0.8c1.3,0.5,2.2,1.2,2.9,2.1c0.6,0.8,1.1,1.8,1.3,2.9c0.3,1.1,0.4,2.6,0.4,4.6V2681.1z"/>
		<path d="M1288.2,2672.8l6.9,1.2c-0.9,2.5-2.3,4.4-4.2,5.7s-4.3,2-7.1,2c-4.5,0-7.9-1.5-10-4.4c-1.7-2.4-2.6-5.4-2.6-9
			c0-4.3,1.1-7.7,3.4-10.1c2.3-2.4,5.1-3.7,8.5-3.7c3.9,0,6.9,1.3,9.2,3.8c2.2,2.6,3.3,6.5,3.2,11.7h-17.2c0,2,0.6,3.6,1.7,4.8
			c1.1,1.1,2.4,1.7,4,1.7c1.1,0,2-0.3,2.7-0.9C1287.3,2675,1287.9,2674.1,1288.2,2672.8z M1288.6,2665.8c0-2-0.6-3.5-1.5-4.5
			c-1-1-2.2-1.6-3.6-1.6c-1.5,0-2.7,0.5-3.7,1.6c-1,1.1-1.5,2.6-1.4,4.5H1288.6z"/>
		<path d="M1323.9,2681.1h-6.4v-3.8c-1.1,1.5-2.3,2.6-3.8,3.3c-1.4,0.7-2.9,1.1-4.4,1.1c-3,0-5.5-1.2-7.7-3.6
			c-2.1-2.4-3.2-5.8-3.2-10.1c0-4.4,1-7.8,3.1-10.1c2.1-2.3,4.7-3.4,7.9-3.4c2.9,0,5.4,1.2,7.5,3.6v-12.9h6.9V2681.1z
			 M1305.5,2667.5c0,2.8,0.4,4.8,1.2,6c1.1,1.8,2.7,2.7,4.7,2.7c1.6,0,2.9-0.7,4-2c1.1-1.3,1.7-3.4,1.7-6c0-3-0.5-5.1-1.6-6.4
			c-1.1-1.3-2.5-2-4.1-2c-1.6,0-3,0.7-4.1,1.9C1306.1,2663,1305.5,2664.9,1305.5,2667.5z"/>
		<path d="M1342.3,2681.1v-35.9h6.9v12.9c2.1-2.4,4.6-3.6,7.5-3.6c3.2,0,5.8,1.1,7.9,3.4c2.1,2.3,3.1,5.6,3.1,9.9
			c0,4.4-1.1,7.9-3.2,10.3c-2.1,2.4-4.7,3.6-7.7,3.6c-1.5,0-2.9-0.4-4.4-1.1c-1.4-0.7-2.7-1.8-3.7-3.3v3.8H1342.3z M1349.1,2667.5
			c0,2.7,0.4,4.7,1.3,6c1.2,1.8,2.8,2.7,4.7,2.7c1.5,0,2.8-0.6,3.9-1.9c1.1-1.3,1.6-3.3,1.6-6.1c0-3-0.5-5.1-1.6-6.4
			c-1.1-1.3-2.5-2-4.1-2c-1.6,0-3,0.6-4.1,1.9C1349.7,2662.9,1349.1,2664.9,1349.1,2667.5z"/>
		<path d="M1369,2655.1h7.3l6.2,18.5l6.1-18.5h7.1l-9.2,25l-1.6,4.5c-0.6,1.5-1.2,2.7-1.7,3.5c-0.5,0.8-1.2,1.4-1.9,1.9
			c-0.7,0.5-1.6,0.9-2.6,1.2c-1,0.3-2.2,0.4-3.5,0.4c-1.3,0-2.6-0.1-3.9-0.4l-0.6-5.4c1.1,0.2,2,0.3,2.9,0.3c1.6,0,2.8-0.5,3.5-1.4
			c0.8-0.9,1.4-2.1,1.8-3.6L1369,2655.1z"/>
	</g>
</g>
<path fill="none" stroke="#2C2C2C" stroke-width="400" stroke-miterlimit="10" d="M0.5,1157.5h429.6
	c431.6,0,781.4-349.9,781.4-781.4V0.5"/>
<g>
	<g>
		<line fill="none" stroke="#FBB03B" stroke-width="25" stroke-miterlimit="10" x1="0.5" y1="1157.5" x2="70.5" y2="1157.5"/>
		<path fill="none" stroke="#FBB03B" stroke-width="25" stroke-miterlimit="10" stroke-dasharray="135.1964,67.5982" d="
			M138.1,1157.5h292c431.6,0,781.4-349.9,781.4-781.4V104.3"/>
		<line fill="none" stroke="#FBB03B" stroke-width="25" stroke-miterlimit="10" x1="1211.5" y1="70.5" x2="1211.5" y2="0.5"/>
	</g>
</g>
<g>
	<path fill="none" stroke="#E6E6E6" stroke-width="20" stroke-miterlimit="10" d="M0.5,1322.5h429.6c127.7,0,251.7-25,368.4-74.4
		c112.7-47.7,213.9-115.9,300.8-202.8c86.9-86.9,155.1-188.1,202.8-300.8c49.4-116.8,74.4-240.7,74.4-368.4V0.5"/>
</g>
<g>
	<path fill="none" stroke="#E6E6E6" stroke-width="20" stroke-miterlimit="10" d="M1046.5,0.5v375.6c0,83.3-16.3,164-48.4,239.9
		c-31,73.4-75.5,139.3-132.2,196c-56.7,56.7-122.6,101.1-196,132.2c-75.9,32.1-156.6,48.4-239.9,48.4H0.5"/>
</g>
<line fill="none" stroke="#2C2C2C" stroke-width="400" stroke-miterlimit="10" x1="1667" y1="0" x2="1667" y2="1322"/>
<g>
	<line fill="none" stroke="#E6E6E6" stroke-width="20" stroke-miterlimit="10" x1="1502" y1="0" x2="1502" y2="1322"/>
</g>
<g>
	<line fill="none" stroke="#E6E6E6" stroke-width="20" stroke-miterlimit="10" x1="1832" y1="1322" x2="1832" y2="0"/>
</g>
<g>
	<g>
		<line fill="none" stroke="#FBB03B" stroke-width="25" stroke-miterlimit="10" x1="1667" y1="0" x2="1667" y2="70"/>
		
			<line fill="none" stroke="#FBB03B" stroke-width="25" stroke-miterlimit="10" stroke-dasharray="147.75,73.875" x1="1667" y1="143.9" x2="1667" y2="1215.1"/>
		<line fill="none" stroke="#FBB03B" stroke-width="25" stroke-miterlimit="10" x1="1667" y1="1252" x2="1667" y2="1322"/>
	</g>
</g>
<path fill="none" stroke="#2C2C2C" stroke-width="400" stroke-miterlimit="10" d="M2800.5,1092.5h-269.3
	c-228.5,0-413.7-185.2-413.7-413.7v0c0-228.5,185.2-413.7,413.7-413.7h269.3"/>
<g>
	<g>
		<path fill="none" stroke="#E6E6E6" stroke-width="20" stroke-miterlimit="10" d="M2800.5,100h-269.2
			c-78.1,0-153.9,15.3-225.3,45.5c-68.9,29.2-130.8,70.9-183.9,124c-53.1,53.1-94.8,115-124,183.9c-30.2,71.5-45.5,147.3-45.5,225.3
			s15.3,153.9,45.5,225.3c29.2,68.9,70.9,130.8,124,183.9c53.1,53.1,115,94.8,183.9,124c71.5,30.2,147.3,45.5,225.3,45.5h269.2"/>
	</g>
	<g>
		<path fill="none" stroke="#E6E6E6" stroke-width="20" stroke-miterlimit="10" d="M2800.5,927.5h-269.2
			c-66.4,0-128.9-25.9-175.9-72.9c-47-47-72.9-109.5-72.9-175.9s25.9-128.9,72.9-175.9c47-47,109.5-72.9,175.9-72.9h269.2"/>
	</g>
</g>
<g>
	<g>
		<line fill="none" stroke="#FBB03B" stroke-width="25" stroke-miterlimit="10" x1="2800.5" y1="1092.5" x2="2730.5" y2="1092.5"/>
		<path fill="none" stroke="#FBB03B" stroke-width="25" stroke-miterlimit="10" stroke-dasharray="135.8709,67.9354" d="
			M2662.6,1092.5h-131.3c-228.5,0-413.7-185.2-413.7-413.7v0c0-228.5,185.2-413.7,413.7-413.7h165.3"/>
		<line fill="none" stroke="#FBB03B" stroke-width="25" stroke-miterlimit="10" x1="2730.5" y1="265" x2="2800.5" y2="265"/>
	</g>
</g>
<path fill="none" stroke="#2C2C2C" stroke-width="400" stroke-miterlimit="10" d="M-0.5,2128h375.4c146,0,284.4-65.3,377.2-178
	l156.8-190.5c92.8-112.7,231.2-178,377.2-178H1688"/>
<g>
	<g>
		<path fill="none" stroke="#E6E6E6" stroke-width="20" stroke-miterlimit="10" d="M1688,1416.5h-401.9c-48.3,0-96.7,5.4-143.8,16
			c-46.5,10.5-92,26.1-135.2,46.5c-43.2,20.4-84.2,45.5-121.8,74.8c-38.1,29.6-73,63.5-103.8,100.8l-156.8,190.5
			c-30.2,36.6-68.8,66.7-111.7,86.9c-42.9,20.2-90.7,31-138.1,31H-0.5"/>
	</g>
	<g>
		<path fill="none" stroke="#E6E6E6" stroke-width="20" stroke-miterlimit="10" d="M-0.5,2293h375.4c48.3,0,96.7-5.4,143.8-16
			c46.5-10.5,92-26.1,135.2-46.5c43.2-20.4,84.2-45.5,121.8-74.8c38.1-29.6,73-63.5,103.8-100.8l156.8-190.5
			c30.2-36.6,68.8-66.7,111.7-86.9c42.9-20.2,90.7-31,138.1-31H1688"/>
	</g>
</g>
<g>
	<g>
		<line fill="none" stroke="#FBB03B" stroke-width="25" stroke-miterlimit="10" x1="-0.5" y1="2128" x2="69.5" y2="2128"/>
		<path fill="none" stroke="#FBB03B" stroke-width="25" stroke-miterlimit="10" stroke-dasharray="139.6664,69.8332" d="M139.3,2128
			h235.6c146,0,284.4-65.3,377.2-178l156.8-190.5c92.8-112.7,231.2-178,377.2-178h297"/>
		<line fill="none" stroke="#FBB03B" stroke-width="25" stroke-miterlimit="10" x1="1618" y1="1581.5" x2="1688" y2="1581.5"/>
	</g>
</g>
<path fill="none" stroke="#2C2C2C" stroke-width="400" stroke-miterlimit="10" d="M0.5,608l358.1-0.6
	c159.9-0.2,289.4-130,289.4-289.9V0.5"/>
<g>
	<g>
		<path fill="none" stroke="#E6E6E6" stroke-width="20" stroke-miterlimit="10" d="M483,0.5v317.1c0,68.8-55.9,124.8-124.7,124.9
			L0.1,442"/>
	</g>
	<g>
		<path fill="none" stroke="#E6E6E6" stroke-width="20" stroke-miterlimit="10" d="M0.8,772.5l358.1-0.1
			c61.3-0.1,120.8-12.2,176.9-36c54.1-23,102.7-55.8,144.3-97.5c41.7-41.7,74.4-90.3,97.2-144.5C801,438.4,813,378.8,813,317.6V0.5"
			/>
	</g>
</g>
<g>
	<g>
		<line fill="none" stroke="#FBB03B" stroke-width="25" stroke-miterlimit="10" x1="0.5" y1="608" x2="70.5" y2="607.9"/>
		<path fill="none" stroke="#FBB03B" stroke-width="25" stroke-miterlimit="10" stroke-dasharray="152.3146,76.1573" d="
			M146.7,607.8l211.9-0.3c159.9-0.2,289.4-130,289.4-289.9v-209"/>
		<line fill="none" stroke="#FBB03B" stroke-width="25" stroke-miterlimit="10" x1="648" y1="70.5" x2="648" y2="0.5"/>
	</g>
</g>
<path fill="none" stroke="#2C2C2C" stroke-width="400" stroke-miterlimit="10" d="M1101,2228h1148.3
	c161.4,0,292.2-130.8,292.2-292.2v0c0-161.4-130.8-292.2-292.2-292.2h-4.5c-161.4,0-292.2,130.8-292.2,292.2v496.2v367.6"/>
<g>
	<g>
		<path fill="none" stroke="#E6E6E6" stroke-width="20" stroke-miterlimit="10" d="M1101,2393h1148.3
			c252.5,0,457.2-204.7,457.2-457.2v0c0-252.5-204.7-457.2-457.2-457.2h-4.5c-252.5,0-457.2,204.7-457.2,457.2v92"/>
	</g>
	<g>
		<path fill="none" stroke="#E6E6E6" stroke-width="20" stroke-miterlimit="10" d="M2117.5,2028v-92.3c0-70.3,57-127.2,127.2-127.2
			h4.5c70.3,0,127.2,57,127.2,127.2v0c0,70.3-57,127.2-127.2,127.2H1101"/>
	</g>
</g>
<g>
	<g>
		<line fill="none" stroke="#E6E6E6" stroke-width="20" stroke-miterlimit="10" x1="2117.5" y1="2799.5" x2="2117.5" y2="2427.9"/>
	</g>
	<g>
		<line fill="none" stroke="#E6E6E6" stroke-width="20" stroke-miterlimit="10" x1="1787.5" y1="2427.9" x2="1787.5" y2="2799.5"/>
	</g>
</g>
<g>
	<g>
		<line fill="none" stroke="#FBB03B" stroke-width="25" stroke-miterlimit="10" x1="1952.5" y1="2427.9" x2="1952.5" y2="2497.9"/>
		
			<line fill="none" stroke="#FBB03B" stroke-width="25" stroke-miterlimit="10" stroke-dasharray="115.789,57.8945" x1="1952.5" y1="2555.8" x2="1952.5" y2="2700.6"/>
		<line fill="none" stroke="#FBB03B" stroke-width="25" stroke-miterlimit="10" x1="1952.5" y1="2729.5" x2="1952.5" y2="2799.5"/>
	</g>
</g>
<g>
	<g>
		<line fill="none" stroke="#FBB03B" stroke-width="25" stroke-miterlimit="10" x1="1101" y1="2228" x2="1171" y2="2228"/>
		<path fill="none" stroke="#FBB03B" stroke-width="25" stroke-miterlimit="10" stroke-dasharray="146,73" d="M1244,2228h1005.3
			c161.4,0,292.2-130.8,292.2-292.2v0c0-161.4-130.8-292.2-292.2-292.2h-4.5c-156.5,0-284.3,123.1-291.9,277.8"/>
		<line fill="none" stroke="#FBB03B" stroke-width="25" stroke-miterlimit="10" x1="1952.5" y1="1957.7" x2="1952.5" y2="2027.7"/>
	</g>
</g>
<g>
	<line fill="none" stroke="#2C2C2C" stroke-width="400" stroke-miterlimit="10" x1="994.5" y1="2566.5" x2="0.5" y2="2566.5"/>
	<g>
		<line fill="none" stroke="#E6E6E6" stroke-width="20" stroke-miterlimit="10" x1="994.5" y1="2401.5" x2="0.5" y2="2401.5"/>
	</g>
	<g>
		<line fill="none" stroke="#E6E6E6" stroke-width="20" stroke-miterlimit="10" x1="0.5" y1="2731.5" x2="994.5" y2="2731.5"/>
	</g>
	<g>
		<g>
			<line fill="none" stroke="#FBB03B" stroke-width="25" stroke-miterlimit="10" x1="994.5" y1="2566.5" x2="924.5" y2="2566.5"/>
			
				<line fill="none" stroke="#FBB03B" stroke-width="25" stroke-miterlimit="10" stroke-dasharray="131.3846,65.6923" x1="858.8" y1="2566.5" x2="103.3" y2="2566.5"/>
			<line fill="none" stroke="#FBB03B" stroke-width="25" stroke-miterlimit="10" x1="70.5" y1="2566.5" x2="0.5" y2="2566.5"/>
		</g>
	</g>
</g>
<g>
	<line fill="none" stroke="#2C2C2C" stroke-width="400" stroke-miterlimit="10" x1="540.5" y1="1623.5" x2="0.5" y2="1623.5"/>
	<g>
		<line fill="none" stroke="#E6E6E6" stroke-width="20" stroke-miterlimit="10" x1="540.5" y1="1458.5" x2="0.5" y2="1458.5"/>
	</g>
	<g>
		<line fill="none" stroke="#E6E6E6" stroke-width="20" stroke-miterlimit="10" x1="0.5" y1="1788.5" x2="540.5" y2="1788.5"/>
	</g>
	<g>
		<g>
			<line fill="none" stroke="#FBB03B" stroke-width="25" stroke-miterlimit="10" x1="540.5" y1="1623.5" x2="470.5" y2="1623.5"/>
			
				<line fill="none" stroke="#FBB03B" stroke-width="25" stroke-miterlimit="10" stroke-dasharray="114.2857,57.1429" x1="413.4" y1="1623.5" x2="99.1" y2="1623.5"/>
			<line fill="none" stroke="#FBB03B" stroke-width="25" stroke-miterlimit="10" x1="70.5" y1="1623.5" x2="0.5" y2="1623.5"/>
		</g>
	</g>
</g>
<rect x="1753" y="1980" opacity="0.4" width="399" height="48"/>
<rect x="1753" y="2428" opacity="0.4" width="399" height="48"/>
</svg>
